<?xml version="1.0" ?><!DOCTYPE svg  PUBLIC '-//W3C//DTD SVG 1.0//EN'  'http://www.w3.org/TR/2001/REC-SVG-20010904/DTD/svg10.dtd'><svg enable-background="new 0 0 32 32" height="32px" id="Layer_1" version="1.0" viewBox="0 0 32 32" width="32px" xml:space="preserve" xmlns="http://www.w3.org/2000/svg" xmlns:xlink="http://www.w3.org/1999/xlink"><g><path d="M0,15.003v15c0,1.104,0.896,2,2,2h28c1.104,0,2-0.896,2-2v-15H0z" fill="#EF4D4D"/><path d="M30,31.003H2c-1.104,0-2-0.896-2-2v1c0,1.104,0.896,2,2,2h28c1.104,0,2-0.896,2-2v-1   C32,30.107,31.104,31.003,30,31.003z" opacity="0.15"/><path d="M31,15.003v-11c0-1.104-0.896-2-2-2H3c-1.104,0-2,0.896-2,2v11H31z" fill="#EF4D4D"/><rect height="11" opacity="0.2" width="26" x="3" y="4.003"/><rect fill="#FFFFFF" height="5" opacity="0.1" width="32" y="15.003"/><path d="M26,18.003c-0.553,0-1-0.447-1-1v1c0,0.553,0.447,1,1,1s1-0.447,1-1v-1C27,17.556,26.553,18.003,26,18.003z" opacity="0.2"/><path d="M6,18.003c-0.553,0-1-0.447-1-1v1c0,0.553,0.447,1,1,1s1-0.447,1-1v-1C7,17.556,6.553,18.003,6,18.003z" opacity="0.2"/><g><path d="M5,17.003c0,0.553,0.447,1,1,1s1-0.447,1-1v-3H5V17.003z" fill="#EACF60"/><path d="M25,17.003c0,0.553,0.447,1,1,1s1-0.447,1-1v-3h-2V17.003z" fill="#EACF60"/><path d="M6,0.003c-0.553,0-1,0.447-1,1v1h2v-1C7,0.45,6.553,0.003,6,0.003z" fill="#EACF60"/><path d="M26,0.003c-0.553,0-1,0.447-1,1v1h2v-1C27,0.45,26.553,0.003,26,0.003z" fill="#EACF60"/></g><path d="M12,12.003c-0.353,0-0.686-0.072-1-0.184v3.184h2v-3.184C12.686,11.931,12.353,12.003,12,12.003z" fill="#434854"/><rect fill="#434854" height="2" width="2" x="20" y="13.003"/><rect fill="#E6E6E6" height="7" width="2" x="20" y="6.003"/><g><rect height="1" opacity="0.2" width="18" x="7" y="14.003"/><rect height="1" opacity="0.2" width="2" x="27" y="14.003"/><rect height="1" opacity="0.2" width="2" x="3" y="14.003"/></g><path d="M13,6.003v3c0,0.553-0.447,1-1,1s-1-0.447-1-1v-3c-1.531,0.484-2,1.695-2,3c0,1.657,1.343,3,3,3   s3-1.343,3-3C15,7.698,14.516,6.456,13,6.003z" fill="#E6E6E6"/></g><g/><g/><g/><g/><g/><g/></svg>